<svg width="20" height="20" viewBox="0 0 20 20" fill="none" xmlns="http://www.w3.org/2000/svg">
  <path d="M10 12.5C11.3807 12.5 12.5 11.3807 12.5 10C12.5 8.61929 11.3807 7.5 10 7.5C8.61929 7.5 7.5 8.61929 7.5 10C7.5 11.3807 8.61929 12.5 10 12.5Z" stroke="currentColor" strokeWidth="1.5" strokeLinecap="round" strokeLinejoin="round"/>
  <path d="M16.25 10C16.25 10.1083 16.2417 10.2167 16.225 10.325L15.1083 13.6583C15.0083 13.95 14.85 14.2167 14.6417 14.4333L12.5 16.575C12.2833 16.7833 12.0167 16.9417 11.725 17.0417L8.39167 18.1583C8.28333 18.175 8.175 18.1833 8.06667 18.1833C7.95833 18.1833 7.85 18.175 7.74167 18.1583L4.40833 17.0417C4.11667 16.9417 3.85 16.7833 3.63333 16.575L1.49167 14.4333C1.28333 14.2167 1.125 13.95 1.025 13.6583L-0.0916667 10.325C-0.108333 10.2167 -0.116667 10.1083 -0.116667 10C-0.116667 9.89167 -0.108333 9.78333 -0.0916667 9.675L1.025 6.34167C1.125 6.05 1.28333 5.78333 1.49167 5.56667L3.63333 3.425C3.85 3.21667 4.11667 3.05833 4.40833 2.95833L7.74167 1.84167C7.85 1.825 7.95833 1.81667 8.06667 1.81667C8.175 1.81667 8.28333 1.825 8.39167 1.84167L11.725 2.95833C12.0167 3.05833 12.2833 3.21667 12.5 3.425L14.6417 5.56667C14.85 5.78333 15.0083 6.05 15.1083 6.34167L16.225 9.675C16.2417 9.78333 16.25 9.89167 16.25 10Z" stroke="currentColor" strokeWidth="1.5" strokeLinecap="round" strokeLinejoin="round"/>
</svg>

